<?xml version="1.0" standalone="no"?>
<!DOCTYPE svg PUBLIC "-//W3C//DTD SVG 20010904//EN"
 "http://www.w3.org/TR/2001/REC-SVG-20010904/DTD/svg10.dtd">
<svg version="1.0" xmlns="http://www.w3.org/2000/svg"
 width="3600.000000pt" height="3000.000000pt" viewBox="0 0 3600.000000 3000.000000"
 preserveAspectRatio="xMidYMid meet">

<g transform="translate(0.000000,3000.000000) scale(0.100000,-0.100000)"
fill="#000000" stroke="none">
<path d="M16730 29219 c-124 -7 -189 -26 -271 -77 -50 -32 -149 -138 -207
-222 -21 -30 -49 -61 -63 -67 -28 -14 -200 -53 -454 -103 -260 -52 -360 -91
-444 -171 -60 -58 -81 -105 -81 -184 0 -121 59 -336 141 -513 22 -47 36 -89
32 -93 -5 -3 -42 -16 -83 -29 -162 -47 -250 -106 -250 -165 0 -66 49 -82 186
-61 153 23 320 85 582 215 89 44 177 82 195 85 159 23 256 28 463 21 124 -4
222 -11 217 -15 -4 -5 -37 -20 -72 -35 -121 -50 -246 -116 -346 -182 -115 -77
-326 -280 -393 -380 -94 -140 -205 -414 -232 -573 -6 -36 -13 -135 -17 -220
-6 -170 2 -258 42 -435 39 -173 105 -341 105 -267 0 9 13 46 30 80 70 149 257
280 413 290 62 4 89 0 162 -23 l87 -27 136 83 c223 135 281 178 413 309 206
204 300 368 312 545 2 33 8 60 13 60 5 0 33 -13 62 -28 85 -45 201 -86 287
-104 79 -16 134 -44 195 -100 14 -13 29 -23 33 -23 13 0 -3 43 -26 67 -16 18
-17 24 -6 27 11 4 229 14 229 10 0 0 -16 -18 -35 -40 -44 -48 -58 -99 -53
-184 4 -73 38 -157 89 -222 l32 -40 30 56 c36 68 54 77 49 27 -6 -64 74 -151
140 -151 29 0 29 0 22 50 -5 35 -3 50 5 50 6 0 15 -8 18 -17 4 -10 15 -29 25
-42 18 -24 18 -23 18 50 1 177 40 310 112 381 93 94 157 118 308 118 163 -1
364 -58 376 -107 3 -12 15 -25 25 -28 46 -15 99 -157 119 -319 13 -108 31
-486 29 -609 l-1 -98 33 -29 c34 -29 204 -130 218 -130 4 0 4 26 0 59 -10 68
-41 359 -41 381 0 8 -7 80 -14 160 -16 159 -20 418 -9 493 5 29 12 47 21 47 7
0 24 14 36 31 13 17 49 44 80 60 101 51 404 149 678 219 69 17 140 36 158 42
l34 10 -23 24 c-12 13 -29 24 -36 24 -8 0 -12 4 -9 9 8 13 -71 77 -182 149
-105 68 -234 116 -359 133 -199 28 -181 23 -153 39 14 7 54 24 89 36 l63 22
-76 7 c-67 7 -147 2 -180 -11 -8 -3 -11 27 -12 98 -5 314 -181 482 -964 919
-648 361 -1195 563 -1685 623 -163 20 -230 23 -365 15z"/>
<path d="M20714 26879 c-67 -11 -319 -84 -564 -163 -107 -35 -225 -72 -263
-81 -37 -10 -74 -23 -82 -29 -16 -12 -15 -28 15 -406 6 -69 13 -150 15 -180 2
-30 7 -77 10 -105 3 -27 7 -90 10 -140 8 -156 17 -235 29 -244 26 -21 352
-118 363 -108 2 3 -3 31 -12 63 -24 85 -74 282 -84 329 -14 63 -90 400 -118
517 -13 58 -23 114 -21 124 2 12 17 21 43 27 91 19 257 59 360 87 211 56 477
131 483 136 4 3 -44 99 -74 146 -26 40 -28 41 -110 27z"/>
<path d="M18881 24798 c-20 -195 -33 -488 -28 -631 l5 -138 -59 -30 c-162 -81
-1180 -499 -1218 -499 -28 0 -151 47 -180 69 l-23 18 22 87 c12 48 20 89 18
90 -1 2 -38 -2 -81 -7 -223 -29 -459 54 -681 240 -57 47 -77 59 -86 50 -10 -9
-11 -7 -6 9 4 14 0 27 -14 39 -20 18 -21 18 -51 -11 -60 -56 -157 -190 -200
-274 -41 -81 -43 -89 -43 -175 -1 -76 3 -98 25 -145 l25 -55 -60 -73 c-49 -58
-69 -75 -101 -83 -69 -18 -315 -100 -445 -149 -173 -66 -286 -119 -383 -183
-185 -121 -254 -224 -417 -621 -183 -448 -211 -499 -523 -951 -217 -314 -345
-468 -471 -571 -44 -37 -49 -44 -53 -91 -3 -28 2 -93 11 -144 8 -52 13 -103
10 -114 -3 -11 -27 -35 -54 -53 -56 -38 -117 -103 -142 -150 l-17 -32 -188
123 c-103 68 -952 626 -1885 1240 -934 614 -1700 1117 -1703 1117 -2 0 1 -11
7 -25 8 -17 300 -215 927 -627 504 -331 1346 -885 1871 -1231 l955 -628 6 -62
c4 -34 12 -75 18 -91 l11 -28 104 7 c72 5 111 3 125 -5 21 -10 2406 -1579
3922 -2578 203 -134 197 -119 93 -215 l-62 -59 -689 463 c-378 255 -899 606
-1157 779 l-470 316 -15 54 c-21 77 -114 161 -261 235 -47 24 -62 27 -116 22
-56 -4 -67 -2 -106 24 -24 16 -37 29 -30 29 23 0 3 18 -25 22 -16 2 -302 188
-638 414 -1096 737 -2682 1804 -3590 2415 -746 503 -891 597 -898 583 -6 -10
-6 -19 0 -23 9 -6 232 -156 1518 -1022 363 -244 992 -667 1397 -939 1498
-1006 2087 -1405 2080 -1410 -4 -3 -8 -27 -8 -54 -2 -54 -24 -91 -71 -119 -29
-17 -31 -17 -53 1 l-23 19 30 10 c36 13 66 69 61 116 -3 31 -5 32 -50 35 -46
3 -48 2 -48 -22 0 -15 -10 -36 -21 -47 -26 -26 -73 -21 -122 11 l-32 21 30 -8
c17 -4 44 -7 60 -8 24 0 31 5 33 24 3 20 0 23 -20 18 -12 -3 -44 -9 -70 -12
l-46 -7 -1324 923 c-727 508 -1795 1253 -2373 1655 -661 462 -1054 729 -1059
723 -6 -6 -6 -12 0 -17 5 -5 576 -404 1269 -887 693 -483 1754 -1223 2358
-1644 l1098 -766 -31 -14 c-16 -8 -30 -17 -30 -20 0 -3 48 -21 107 -40 59 -18
123 -44 143 -58 l35 -25 -43 6 c-24 4 -93 27 -155 51 -61 25 -118 45 -126 45
-7 0 -34 -16 -58 -36 -41 -33 -45 -35 -66 -21 -19 12 -1427 1029 -4140 2989
-417 301 -507 361 -495 329 2 -5 793 -579 1758 -1277 965 -697 2004 -1448
2309 -1668 305 -221 559 -404 565 -408 6 -4 3 -16 -8 -32 -18 -28 -12 -32 30
-16 23 9 33 6 68 -16 36 -24 38 -28 21 -35 -11 -4 -29 -8 -40 -8 -36 -2 -125
-49 -125 -67 0 -9 -6 -14 -14 -11 -7 3 -186 133 -397 289 -211 156 -782 578
-1269 938 -2245 1658 -2734 2020 -2865 2117 -91 67 -142 100 -149 93 -5 -5 -8
-11 -5 -14 2 -2 333 -246 734 -543 2038 -1506 2557 -1889 3205 -2368 388 -287
731 -541 762 -564 54 -41 57 -45 43 -64 -22 -32 -18 -63 16 -128 66 -124 212
-253 374 -331 111 -53 193 -63 250 -29 l35 20 45 -31 c25 -18 45 -35 45 -40 0
-4 -19 -17 -42 -29 l-43 -22 30 -8 c17 -5 62 -12 101 -15 l71 -7 145 -106
c953 -702 1858 -1375 1858 -1381 0 -12 -86 -46 -177 -70 l-82 -22 -553 419
c-304 231 -1129 856 -1833 1389 -1115 845 -3522 2671 -4638 3517 -203 153
-371 276 -374 273 -4 -4 -2 -10 3 -15 5 -5 747 -568 1649 -1252 902 -684 2239
-1697 2970 -2252 732 -555 1648 -1251 2037 -1546 402 -304 702 -538 695 -542
-7 -3 -84 -23 -172 -44 -171 -40 -201 -50 -175 -59 48 -16 409 -98 477 -108
l81 -12 158 94 c491 288 785 556 984 896 37 64 37 64 25 122 -30 141 -118 402
-136 402 -4 0 -10 -44 -14 -97 -8 -102 -29 -250 -37 -258 -4 -4 -663 427
-3256 2132 -414 273 -751 498 -748 500 11 12 887 -150 1015 -187 44 -12 67 4
211 150 222 225 383 460 568 830 276 552 457 1079 523 1525 10 71 19 143 19
158 0 27 4 25 91 -55 195 -179 398 -290 646 -353 53 -13 98 -26 100 -29 7 -6
-63 -199 -121 -336 l-44 -105 36 -8 c92 -21 561 12 594 42 4 4 -11 53 -33 109
-45 115 -103 332 -92 343 5 3 89 32 188 64 251 80 564 200 789 304 49 23 90
40 92 39 1 -2 7 -55 13 -118 44 -444 162 -812 384 -1198 288 -499 726 -1025
1105 -1328 159 -126 267 -195 449 -286 l161 -81 134 17 c73 9 201 25 283 35
83 11 222 22 310 26 357 15 793 -59 1063 -180 55 -24 61 -32 109 -113 185
-315 344 -647 738 -1542 150 -341 176 -392 330 -650 172 -289 465 -790 465
-795 0 -2 -24 7 -54 20 -76 34 -165 55 -229 55 l-54 0 15 -46 c14 -42 14 -49
-4 -91 -26 -62 -63 -88 -124 -87 -60 1 -97 24 -119 75 -9 21 -19 39 -22 39
-16 0 -122 -126 -154 -184 -111 -199 -154 -413 -163 -825 l-7 -275 -70 95
c-38 52 -217 291 -397 532 -181 241 -383 516 -450 610 -67 95 -212 298 -323
452 -247 343 -342 486 -409 618 -91 179 -111 265 -155 657 -17 151 -38 320
-46 375 -8 55 -20 137 -26 183 l-12 83 -91 117 c-140 178 -275 366 -423 590
-74 111 -140 202 -146 202 -31 -1 -192 -31 -222 -41 -27 -10 -51 -9 -144 9
-448 88 -1074 374 -1461 667 -363 275 -684 629 -918 1012 -42 68 -61 91 -72
87 -255 -106 -553 -155 -758 -125 -68 10 -211 46 -265 67 -10 4 -31 -25 -71
-101 -162 -302 -331 -536 -564 -777 -257 -265 -466 -414 -735 -523 l-78 -32
43 -12 c109 -33 433 -151 634 -231 987 -395 1748 -833 2154 -1240 117 -116
236 -268 363 -460 400 -608 488 -1062 307 -1575 -18 -49 -41 -106 -52 -125
-34 -63 -350 -266 -668 -431 -47 -24 -87 -44 -90 -45 -6 -1 -38 -13 -65 -24
-11 -5 -38 -14 -60 -21 -22 -6 -53 -19 -70 -27 -32 -17 -37 -19 -60 -21 -8 0
-15 -7 -15 -15 0 -8 -9 -12 -25 -11 -14 2 -25 -1 -25 -6 0 -6 -4 -7 -10 -4 -5
3 -10 2 -10 -3 0 -6 -9 -8 -20 -5 -12 3 -29 -2 -40 -12 -11 -10 -28 -15 -40
-12 -11 3 -23 1 -26 -4 -3 -5 -11 -9 -17 -7 -23 4 -116 -13 -122 -22 -4 -6
-11 -8 -16 -4 -5 3 -16 1 -22 -5 -7 -5 -22 -10 -32 -11 -45 -1 -63 -5 -59 -11
2 -4 -12 -6 -31 -5 -19 2 -35 -1 -35 -6 0 -5 -5 -6 -12 -2 -6 4 -17 -1 -24
-11 -9 -13 -17 -15 -26 -8 -16 12 -72 7 -76 -7 -2 -5 -8 -10 -13 -10 -6 0 -7
5 -3 12 4 6 3 9 -2 6 -19 -12 -83 -17 -89 -8 -9 14 -35 12 -33 -2 2 -8 -10
-14 -29 -16 -18 -2 -33 -7 -33 -13 0 -5 -7 -9 -15 -9 -8 0 -15 -5 -15 -11 0
-5 -4 -7 -10 -4 -5 3 -10 1 -10 -5 0 -6 -10 -8 -25 -4 -14 3 -25 2 -25 -3 0
-5 -14 -8 -30 -5 -17 2 -37 -1 -45 -8 -10 -8 -27 -10 -52 -4 -21 4 -58 8 -83
9 -25 1 -76 7 -115 13 -83 13 -136 14 -150 3 -17 -14 -63 -24 -165 -35 -19 -3
-37 -5 -40 -6 -3 -2 -8 -2 -11 -2 -23 3 -246 14 -364 18 -218 7 -243 9 -239
15 3 5 -120 10 -283 12 -24 0 -43 3 -43 6 0 3 -26 7 -58 8 -79 2 -193 12 -201
17 -3 2 -63 5 -131 7 -69 1 -135 6 -148 11 -13 4 -44 9 -70 10 -91 3 -91 2
-277 179 -146 138 -176 169 -272 274 -321 354 -558 757 -786 1335 -55 139
-153 430 -198 587 -11 40 -15 42 -100 78 -49 20 -138 66 -197 102 -59 35 -111
65 -115 66 -4 1 -21 -32 -39 -73 -58 -142 -271 -679 -389 -985 -38 -99 -80
-205 -92 -235 l-23 -55 -70 2 c-984 32 -1812 26 -2204 -18 -237 -26 -568 -101
-662 -151 -32 -17 -84 -55 -118 -85 -70 -64 -215 -253 -282 -368 -80 -138
-168 -349 -188 -449 -24 -121 -43 -405 -35 -530 15 -245 35 -333 127 -566 97
-244 224 -479 410 -758 49 -74 88 -136 85 -138 -2 -2 -41 1 -86 7 -45 6 -84 9
-86 7 -3 -2 54 -30 125 -62 l130 -59 74 -101 c41 -55 146 -193 235 -306 88
-113 161 -207 161 -210 0 -3 -13 -11 -30 -17 -40 -15 -70 -67 -70 -123 0 -87
94 -234 201 -315 62 -46 62 -52 -1 -36 -97 25 -103 44 76 -241 90 -144 164
-271 164 -282 0 -12 -20 -149 -44 -306 -24 -157 -54 -360 -67 -452 -12 -93
-25 -168 -28 -168 -3 0 -154 248 -336 550 -181 302 -331 547 -332 546 -4 -4
-21 -970 -33 -1896 -35 -2637 -47 -3525 -56 -3987 l-6 -322 -77 -89 c-42 -49
-110 -128 -152 -176 -42 -47 -158 -189 -259 -315 l-182 -230 -252 -107 c-138
-59 -331 -143 -428 -186 l-178 -80 -49 -67 c-199 -270 -321 -543 -356 -797
-14 -97 -14 -118 -3 -126 26 -18 170 -1 272 32 213 69 430 179 701 357 255
168 352 250 484 412 l51 63 -25 24 c-14 13 -25 31 -25 42 0 32 54 126 81 141
24 13 31 12 95 -18 38 -18 84 -44 102 -58 31 -23 34 -30 29 -64 -3 -21 -18
-57 -34 -81 -26 -39 -33 -43 -68 -42 -22 0 -47 4 -56 8 -11 5 -28 -10 -65 -56
-229 -293 -480 -516 -821 -730 -231 -144 -577 -296 -689 -301 -24 -1 -34 -7
-34 -18 0 -30 30 -181 57 -284 22 -84 105 -321 118 -333 11 -11 1414 457 2005
668 217 78 463 164 545 192 83 28 240 85 350 127 309 120 374 143 385 136 6
-3 10 -2 10 3 0 5 12 14 26 21 23 10 26 10 20 -4 -3 -9 1 -23 9 -32 9 -9 13
-23 9 -35 -3 -12 1 -27 11 -38 16 -18 16 -19 -4 -17 -12 1 -19 7 -17 13 3 7
-2 15 -11 18 -12 5 -14 1 -10 -15 4 -15 2 -19 -9 -15 -10 4 -14 0 -12 -11 2
-13 -5 -17 -31 -18 -19 0 -36 -6 -39 -13 -2 -7 2 -10 12 -6 12 5 16 0 16 -20
0 -14 -6 -26 -13 -26 -7 0 -14 -12 -15 -27 -1 -14 1 -23 5 -19 5 4 8 12 8 17
0 5 5 8 10 7 6 -2 10 -8 10 -15 0 -25 14 -22 41 10 56 66 62 75 104 163 65
136 81 176 76 191 -3 7 -1 13 4 13 5 0 13 18 16 40 4 22 11 43 15 46 5 3 9 12
9 20 0 12 -2 12 -14 2 -8 -7 -12 -17 -9 -21 3 -5 -4 -11 -16 -14 -12 -3 -21
-12 -21 -19 0 -19 -16 -18 -24 2 -8 20 13 91 31 105 13 11 14 10 17 -13 2 -23
25 -18 46 12 12 16 18 30 13 30 -4 0 0 5 9 11 13 7 28 5 55 -9 21 -11 82 -36
135 -57 54 -21 98 -42 98 -47 0 -5 4 -7 9 -4 14 9 42 -5 35 -16 -4 -6 2 -7 16
-3 14 4 20 3 16 -3 -8 -13 19 -23 41 -15 12 5 14 3 8 -7 -5 -8 -4 -11 2 -7 12
7 156 -50 161 -64 2 -4 10 -5 19 -2 12 5 14 3 8 -7 -6 -10 -4 -12 8 -7 10 3
17 2 17 -3 0 -5 7 -6 17 -3 12 5 14 3 8 -7 -6 -10 -4 -12 8 -7 10 4 17 2 17
-4 0 -6 7 -8 16 -5 10 4 13 2 8 -6 -5 -8 -2 -9 9 -5 10 4 17 2 17 -4 0 -6 7
-8 16 -5 10 4 13 2 8 -6 -5 -8 -2 -9 9 -5 10 4 17 2 17 -4 0 -6 7 -8 16 -5 8
3 12 2 9 -4 -6 -9 10 -14 42 -13 7 1 10 -4 6 -10 -4 -6 0 -8 10 -4 10 3 17 2
17 -4 0 -6 4 -8 9 -5 13 9 113 -38 104 -48 -4 -5 0 -6 10 -3 9 4 17 2 17 -3 0
-5 7 -6 17 -3 12 5 14 3 8 -7 -6 -10 -4 -12 8 -7 10 3 17 2 17 -3 0 -5 7 -6
17 -3 10 4 14 2 9 -5 -8 -13 29 -26 45 -16 7 4 9 3 5 -4 -8 -13 29 -26 45 -16
7 4 9 3 5 -4 -8 -13 29 -26 45 -16 8 5 9 3 4 -6 -6 -10 -4 -12 8 -7 10 4 17 2
17 -4 0 -6 7 -8 16 -5 10 4 13 2 8 -6 -5 -8 -2 -9 9 -5 10 3 17 3 17 -2 0 -4
6 -8 14 -8 21 0 76 -24 76 -34 0 -5 7 -5 17 -2 11 4 14 3 9 -5 -5 -8 -2 -10 8
-6 9 3 16 1 16 -6 0 -6 4 -9 9 -6 14 9 42 -5 35 -16 -4 -6 2 -7 16 -3 14 4 20
3 16 -3 -3 -5 1 -13 10 -16 24 -9 31 -7 14 4 -8 5 -10 10 -5 10 13 0 43 -20
30 -20 -5 0 -3 -5 5 -10 8 -5 23 -7 34 -4 11 4 16 2 12 -4 -8 -13 19 -23 41
-15 10 4 14 2 10 -4 -9 -14 18 -24 40 -16 12 5 14 3 8 -7 -6 -10 -4 -12 8 -7
10 3 17 3 17 -2 0 -4 6 -8 13 -8 23 0 107 -35 102 -43 -3 -4 1 -8 8 -7 32 1
48 -4 42 -13 -3 -6 1 -7 9 -4 9 3 16 1 16 -6 0 -6 4 -9 9 -6 14 9 42 -5 34
-17 -4 -6 0 -8 10 -4 22 8 49 -2 41 -15 -4 -6 2 -7 16 -3 14 4 20 3 16 -3 -8
-13 19 -23 41 -15 12 5 14 3 8 -7 -6 -10 -4 -12 8 -7 10 3 17 2 17 -3 0 -5 7
-6 17 -3 10 4 14 2 10 -4 -4 -6 -1 -10 6 -9 17 2 231 -84 235 -95 2 -4 10 -5
19 -2 12 5 14 3 8 -7 -6 -10 -4 -12 8 -7 10 3 17 2 17 -3 0 -5 7 -6 17 -3 12
5 14 3 8 -7 -6 -10 -4 -12 8 -7 10 4 17 2 17 -4 0 -6 7 -8 16 -5 9 4 13 2 8
-5 -4 -8 1 -9 16 -4 17 5 21 4 15 -6 -6 -9 -3 -11 8 -6 10 3 17 2 17 -3 0 -6
3 -9 8 -8 14 4 111 -36 106 -44 -3 -4 2 -5 10 -2 9 3 16 1 16 -6 0 -6 4 -9 9
-6 14 9 42 -5 35 -16 -4 -6 2 -7 16 -3 14 4 20 3 16 -3 -6 -10 23 -26 32 -17
3 3 -1 5 -8 5 -7 0 -11 2 -8 5 8 8 39 -6 33 -15 -7 -12 32 -23 46 -14 8 5 9 3
4 -6 -6 -10 -4 -12 8 -7 10 4 17 2 17 -4 0 -6 7 -8 16 -5 10 4 13 2 8 -6 -5
-8 -2 -9 9 -5 10 4 17 2 17 -4 0 -6 7 -8 16 -5 10 4 13 2 8 -6 -5 -8 -2 -9 9
-5 10 3 17 2 17 -2 0 -5 7 -12 16 -15 8 -3 12 -2 9 3 -3 6 12 2 34 -7 22 -9
37 -20 35 -24 -3 -4 3 -5 12 -1 13 5 15 3 9 -7 -5 -9 -4 -11 4 -6 14 9 53 -2
46 -14 -7 -11 22 -21 42 -13 10 4 14 2 10 -4 -9 -14 18 -24 40 -16 10 4 14 2
10 -4 -9 -14 18 -24 40 -16 10 4 14 2 10 -4 -8 -12 50 -36 64 -27 5 3 9 0 9
-6 0 -7 7 -9 16 -6 10 4 13 2 8 -6 -5 -8 -2 -9 9 -5 10 3 17 3 17 -2 0 -4 6
-8 13 -8 24 0 107 -36 101 -44 -3 -5 2 -6 10 -3 9 3 16 1 16 -5 0 -6 7 -8 17
-4 11 4 14 3 9 -5 -5 -8 -2 -10 8 -6 9 3 16 1 16 -5 0 -6 7 -8 17 -4 11 4 14
3 9 -5 -5 -8 -2 -10 8 -6 9 3 16 1 16 -6 0 -6 4 -8 10 -5 5 3 10 1 10 -5 0 -7
7 -10 15 -6 8 3 15 1 15 -4 0 -5 7 -6 17 -3 12 5 14 3 8 -7 -6 -10 -4 -12 8
-7 10 3 17 2 17 -3 0 -5 7 -6 17 -3 12 5 14 3 8 -7 -6 -10 -4 -12 8 -7 10 3
17 2 17 -3 0 -5 7 -6 17 -3 10 4 14 2 9 -5 -4 -6 1 -11 11 -11 10 1 28 -2 41
-6 18 -6 -87 174 -464 801 -268 445 -666 1106 -884 1469 -218 363 -588 977
-821 1364 -259 431 -419 706 -411 709 25 8 605 292 617 302 9 8 17 4 27 -12
15 -23 1710 -2713 2486 -3946 344 -546 411 -659 415 -695 2 -23 3 30 3 118 0
129 -1 145 -7 80 -4 -49 -4 -30 -1 50 3 72 6 339 8 595 2 256 5 742 8 1080 3
338 6 819 8 1068 1 248 6 452 9 452 4 0 6 298 6 663 -1 364 1 725 5 802 3 83
3 124 -2 100 -5 -24 -6 4 -2 70 4 61 5 300 3 533 -3 322 -1 422 8 422 10 0 12
99 11 413 -1 226 2 502 7 611 7 173 10 197 22 182 8 -9 20 -15 27 -12 6 2 22
-6 34 -19 12 -13 35 -29 51 -35 16 -7 29 -17 29 -23 0 -6 3 -7 6 -4 4 4 20 -5
37 -19 26 -22 37 -25 74 -20 35 4 45 2 53 -14 7 -12 16 -17 26 -13 11 4 23 -3
35 -18 15 -20 19 -21 19 -6 0 16 2 16 29 2 23 -11 30 -12 34 -2 3 9 9 8 23 -4
10 -9 27 -19 37 -22 10 -4 15 -11 12 -17 -4 -6 12 -10 40 -10 27 0 44 4 40 10
-3 5 7 3 22 -5 32 -17 69 -19 78 -5 9 14 25 12 22 -2 -1 -8 9 -14 23 -15 81
-5 142 -28 153 -58 7 -17 42 -20 52 -5 10 16 25 12 25 -6 0 -11 -5 -14 -16
-10 -10 4 -14 2 -11 -6 2 -7 10 -12 16 -11 6 2 11 -4 11 -13 0 -8 4 -13 10 -9
5 3 7 13 4 23 -5 14 -3 14 10 -2 18 -22 21 -14 6 15 -15 27 5 25 24 -3 9 -12
16 -18 16 -12 0 5 -5 15 -12 22 -6 6 -8 15 -4 19 4 5 13 0 20 -10 7 -9 23 -17
35 -17 11 0 21 -6 21 -12 0 -7 9 1 20 17 17 25 20 27 21 10 0 -11 3 -14 6 -7
2 6 12 12 20 12 9 0 13 6 9 15 -4 11 2 15 24 15 17 0 30 -5 30 -11 0 -6 7 -9
15 -6 11 5 12 1 5 -18 -10 -26 -2 -33 16 -15 7 7 20 2 40 -15 33 -28 44 -31
44 -11 0 23 29 27 40 6 22 -41 28 -16 29 122 1 78 5 145 8 148 8 7 -8 -3633
-32 -6835 -3 -418 -8 -1124 -11 -1570 -3 -445 -7 -815 -9 -822 -2 -6 10 -16
27 -22 43 -15 48 -14 48 12 0 24 7 27 355 153 83 30 215 79 295 109 80 30 262
98 405 150 143 53 350 129 460 170 110 41 299 111 420 155 121 45 303 112 405
150 102 38 309 114 460 170 151 56 358 132 460 170 102 38 282 105 400 148
446 165 641 237 845 313 116 42 316 117 445 164 129 48 312 115 405 150 94 35
294 109 445 165 312 115 649 240 920 340 102 38 284 105 405 150 121 45 303
112 405 150 102 38 309 114 460 170 442 163 641 237 865 320 221 82 487 181
945 350 410 151 520 193 536 205 11 8 12 81 4 460 -5 248 -11 617 -14 820 -4
204 -11 633 -16 955 -13 771 -37 2209 -50 2995 -6 347 -17 1028 -25 1515 -25
1473 -34 2075 -41 2520 -3 234 -7 432 -10 441 -4 13 -27 17 -132 22 -70 4
-136 9 -147 12 -17 5 -23 -2 -39 -47 -23 -66 -62 -123 -116 -172 l-42 -38 -78
4 c-74 3 -78 2 -60 -14 28 -26 35 -107 15 -170 -18 -55 -62 -138 -93 -173 -23
-28 -134 -103 -178 -121 -143 -60 -335 -31 -799 119 -126 41 -268 83 -315 93
-98 21 -284 24 -555 10 l-170 -9 -68 -62 -68 -62 10 -178 c14 -226 14 -591 0
-674 -15 -93 -44 -154 -100 -206 -62 -58 -142 -95 -219 -102 -79 -8 -141 22
-181 86 -35 55 -44 86 -65 216 -20 129 -69 365 -99 480 -13 50 -33 124 -44
165 -46 174 -86 428 -101 636 -5 81 -14 134 -26 159 -17 36 -17 42 0 129 27
132 99 351 151 454 39 78 77 136 158 238 16 20 17 28 6 63 -30 101 70 207 176
187 40 -8 102 -58 116 -93 7 -20 15 -23 65 -23 31 0 96 -9 144 -21 l88 -20 73
-142 c39 -78 73 -143 74 -145 5 -6 75 27 75 35 0 19 -104 325 -179 528 -301
813 -649 1548 -1103 2325 -316 540 -739 1178 -1105 1663 -58 76 -103 141 -100
143 2 2 35 -16 73 -41 85 -55 122 -58 165 -16 26 27 29 35 29 99 0 81 -16 134
-62 200 -30 43 -32 52 -28 107 12 156 7 181 -54 310 -68 140 -155 355 -296
730 -125 332 -222 571 -334 822 -277 623 -665 1291 -1009 1738 -110 143 -317
355 -406 415 -162 109 -398 176 -841 240 -143 21 -180 31 -180 49 0 4 23 34
51 66 27 33 64 88 81 122 28 58 30 69 26 138 -6 95 -47 181 -126 266 -156 169
-387 271 -753 333 l-36 6 -12 -112z m-3855 -5778 l22 -14 -29 -29 c-37 -36
-45 -68 -30 -118 22 -72 123 -148 197 -149 44 0 84 34 84 72 0 43 -75 118
-118 118 -20 0 -35 -7 -41 -19 -6 -10 -9 -20 -8 -22 1 -2 -4 2 -10 10 -16 19
-16 34 -1 49 25 25 69 12 154 -45 70 -49 85 -63 90 -91 14 -75 -45 -125 -141
-120 -57 3 -68 9 -156 70 -53 37 -103 78 -112 91 -44 67 -40 157 9 208 25 26
30 27 48 15 12 -7 31 -19 42 -26z m-492 -135 c86 -22 155 -58 295 -153 149
-100 303 -177 395 -196 52 -11 126 -46 126 -60 0 -1 -33 1 -74 6 -133 14 -263
71 -479 210 -130 83 -198 115 -291 135 -44 9 -84 25 -110 44 l-40 29 60 0 c33
0 86 -7 118 -15z m-19 -138 c16 -12 8 -15 -66 -19 -59 -4 -98 -12 -127 -27
-43 -22 -43 -22 -68 -2 -28 22 -24 27 40 47 56 17 197 18 221 1z m1061 -98
c32 -20 33 -22 20 -47 -19 -36 -52 -65 -101 -90 -68 -33 -96 -35 -129 -9 l-29
24 44 11 c61 15 110 50 134 95 11 20 22 37 24 37 2 0 19 -9 37 -21z m-776
-105 c84 -60 165 -123 180 -141 36 -41 70 -132 70 -187 0 -54 24 -77 135 -132
61 -30 87 -37 138 -38 39 -1 74 5 93 15 l30 16 545 -394 c299 -216 729 -527
956 -691 380 -274 410 -298 396 -314 -21 -24 -164 -121 -177 -121 -6 0 -416
299 -911 665 -1015 749 -1057 780 -1076 796 -8 7 -66 49 -129 95 l-115 83 -5
54 c-7 73 -43 141 -115 219 -67 72 -137 111 -201 111 -42 0 -78 -26 -86 -63
-3 -15 -7 -14 -40 9 -45 32 -47 52 -12 88 33 32 76 46 131 42 35 -3 67 -22
193 -112z m58 2 c9 -11 -4 -5 -30 14 -27 18 -48 35 -48 37 0 8 62 -33 78 -51z
m2224 -910 c409 -274 745 -501 747 -503 9 -7 -194 -203 -206 -198 -12 4 -1887
1308 -1962 1363 -34 25 -34 26 -13 35 14 7 22 19 22 35 0 25 -5 26 -95 6 -11
-2 -31 4 -44 15 l-24 19 56 16 c31 9 68 27 83 40 26 22 27 25 16 69 -7 25 -12
50 -12 56 0 6 155 -94 345 -222 190 -128 679 -457 1087 -731z m-2596 858 c19
-15 46 -48 61 -75 32 -60 100 -109 152 -109 41 -1 80 -23 60 -36 -25 -15 -101
-5 -154 21 -79 38 -164 146 -165 208 0 23 5 22 46 -9z m283 -99 c20 -23 31
-46 31 -67 0 -29 -1 -30 -22 -16 -11 8 -23 25 -25 38 -4 28 -50 80 -70 80 -14
0 -17 12 -7 23 11 10 59 -20 93 -58z m521 25 c46 -5 103 -10 125 -10 25 0 49
-8 65 -21 l25 -20 -65 6 c-74 7 -237 43 -260 57 -12 7 -10 8 5 4 11 -3 58 -10
105 -16z m107 -94 c66 -31 129 -94 144 -146 l12 -40 25 22 c13 13 35 42 49 66
l25 42 31 -22 c17 -13 454 -318 972 -679 517 -361 940 -661 940 -666 0 -9
-140 -139 -185 -172 l-25 -18 -955 690 -955 690 3 46 c5 62 -26 107 -97 144
-61 30 -116 35 -148 12 -19 -13 -23 -13 -44 3 l-22 19 24 16 c37 26 142 23
206 -7z m199 -21 c18 -13 17 -14 -18 -15 -55 0 -59 18 -7 29 3 0 14 -6 25 -14z
m-379 -72 c9 -14 37 -34 62 -45 32 -14 41 -22 32 -27 -42 -26 -151 53 -151
109 0 17 37 -7 57 -37z m123 -33 c0 -5 -2 -10 -4 -10 -3 0 -8 5 -11 10 -3 6
-1 10 4 10 6 0 11 -4 11 -10z m8780 -2361 c125 -57 177 -186 121 -303 -48 -98
-169 -161 -261 -137 -97 26 -160 92 -180 187 -23 108 31 215 130 258 50 22
136 20 190 -5z m-11245 -3016 c70 -34 80 -42 88 -72 9 -38 -12 -166 -43 -255
-43 -126 -122 -246 -162 -246 -31 0 -131 57 -168 95 l-33 34 41 84 c49 101
106 262 123 347 12 62 12 62 43 57 17 -3 67 -22 111 -44z m210 -557 c115 -55
114 -50 74 -217 -23 -97 -39 -145 -51 -153 -19 -11 -69 3 -176 50 l-53 23 30
58 c38 76 71 185 71 234 0 50 12 50 105 5z m4162 -2707 c7 -7 19 -8 30 -4 17
8 54 7 62 -1 2 -2 5 -15 6 -29 3 -25 -10 -35 -17 -13 -2 6 -25 13 -51 14 -30
2 -53 10 -67 24 l-20 20 23 0 c13 0 28 -5 34 -11z m-5067 -1071 c0 -3 -14 -11
-31 -17 -28 -10 -30 -9 -24 12 4 12 9 31 12 41 5 18 7 18 24 -5 10 -13 19 -27
19 -31z m485 -103 c119 -27 120 -28 119 -69 -1 -21 -17 -67 -35 -104 -34 -66
-35 -67 -76 -68 -39 -1 -44 -5 -90 -65 -154 -203 -407 -490 -543 -616 -159
-147 -369 -311 -487 -380 -50 -29 -59 -26 -99 43 -27 46 -29 92 -4 105 127 67
307 170 367 210 218 147 538 476 661 680 29 48 28 53 -10 64 -29 9 -33 14 -31
43 2 46 42 140 67 157 25 19 83 19 161 0z m-1415 -757 c0 -6 25 -65 57 -130
65 -136 67 -122 -39 -205 -78 -59 -163 -103 -203 -103 -26 0 -37 7 -58 38 -29
41 -77 146 -77 165 0 7 40 38 88 70 49 33 117 85 152 117 67 61 80 69 80 48z
m86 -586 c62 -93 62 -102 -5 -180 -91 -104 -147 -154 -167 -150 -17 3 -124
121 -144 159 -7 12 10 29 77 78 47 35 103 87 126 116 48 63 58 61 113 -23z
m4581 -934 c-2 -24 -4 -7 -4 37 0 44 2 63 4 43 2 -21 2 -57 0 -80z m-4997
-2098 c0 -5 -4 -10 -10 -10 -5 0 -10 5 -10 10 0 6 5 10 10 10 6 0 10 -4 10
-10z m-55 -40 c-3 -5 -11 -10 -16 -10 -6 0 -7 5 -4 10 3 6 11 10 16 10 6 0 7
-4 4 -10z m-22 -57 c-7 -2 -13 -15 -13 -29 0 -18 4 -22 18 -17 16 7 16 6 0
-11 -24 -24 -35 -14 -30 28 3 25 9 36 21 35 10 0 11 -2 4 -6z m-33 -93 c0 -5
-4 -10 -10 -10 -5 0 -10 5 -10 10 0 6 5 10 10 10 6 0 10 -4 10 -10z"/>
<path d="M7742 24083 c4 -23 616 -423 646 -423 13 0 22 4 20 9 -5 15 -637 431
-654 431 -9 0 -14 -7 -12 -17z"/>
<path d="M7656 24001 c-10 -16 23 -42 292 -221 224 -149 277 -181 294 -173 17
7 8 16 -69 69 -240 166 -494 334 -502 334 -5 0 -12 -4 -15 -9z"/>
<path d="M7590 23901 c0 -6 15 -21 33 -34 79 -59 471 -328 481 -330 43 -8 -22
47 -239 198 -234 164 -275 189 -275 166z"/>
<path d="M7510 23823 c0 -6 8 -17 18 -25 34 -31 535 -388 543 -388 11 0 11 11
1 25 -12 18 -526 388 -544 393 -10 2 -18 0 -18 -5z"/>
<path d="M7426 23721 c-4 -6 35 -41 86 -79 414 -304 548 -402 553 -402 3 0 5
6 5 14 0 13 -587 458 -622 471 -9 4 -19 2 -22 -4z"/>
<path d="M7360 23631 c0 -12 702 -542 709 -536 3 3 -4 14 -15 25 -29 28 -678
520 -686 520 -5 0 -8 -4 -8 -9z"/>
<path d="M9480 22952 c0 -22 30 -45 68 -52 23 -4 42 -6 42 -5 0 5 -96 65 -103
65 -4 0 -7 -4 -7 -8z"/>
<path d="M17575 21493 c-105 -22 -150 -25 -365 -28 l-244 -2 -48 -104 c-26
-57 -47 -107 -47 -110 -1 -6 174 -42 260 -54 58 -7 233 10 359 35 110 23 323
88 318 98 -33 70 -100 192 -106 191 -4 -1 -61 -13 -127 -26z"/>
<path d="M10022 21407 c-8 -9 6 -41 52 -122 62 -107 65 -110 95 -107 45 5 75
-19 106 -83 23 -46 30 -53 42 -43 20 16 55 87 51 103 -2 11 -321 265 -333 265
-1 0 -7 -6 -13 -13z"/>
<path d="M17046 9441 c-5 -7 -3 -18 3 -24 14 -14 20 -6 11 17 -5 15 -9 16 -14
7z"/>
<path d="M15953 9170 c0 -30 2 -43 4 -27 2 15 2 39 0 55 -2 15 -4 2 -4 -28z"/>
<path d="M15943 8270 c0 -30 2 -43 4 -27 2 15 2 39 0 55 -2 15 -4 2 -4 -28z"/>
<path d="M10690 3715 c0 -8 4 -15 10 -15 5 0 7 7 4 15 -4 8 -8 15 -10 15 -2 0
-4 -7 -4 -15z"/>
<path d="M15904 3555 c0 -60 1 -84 3 -52 2 32 2 81 0 110 -2 29 -3 3 -3 -58z"/>
<path d="M10597 3545 c-4 -8 -2 -17 3 -20 6 -4 10 3 10 14 0 25 -6 27 -13 6z"/>
<path d="M10627 3553 c-8 -12 30 -29 40 -19 4 3 -1 6 -9 6 -9 0 -18 5 -20 12
-3 9 -6 9 -11 1z"/>
<path d="M10570 3490 c8 -5 20 -10 25 -10 6 0 3 5 -5 10 -8 5 -19 10 -25 10
-5 0 -3 -5 5 -10z"/>
<path d="M11089 3045 c29 -14 55 -24 58 -22 2 3 -15 12 -39 22 -69 28 -78 27
-19 0z"/>
<path d="M11170 3010 c8 -5 20 -10 25 -10 6 0 3 5 -5 10 -8 5 -19 10 -25 10
-5 0 -3 -5 5 -10z"/>
<path d="M11240 2980 c8 -5 20 -10 25 -10 6 0 3 5 -5 10 -8 5 -19 10 -25 10
-5 0 -3 -5 5 -10z"/>
<path d="M11510 2860 c8 -5 20 -10 25 -10 6 0 3 5 -5 10 -8 5 -19 10 -25 10
-5 0 -3 -5 5 -10z"/>
<path d="M11560 2840 c8 -5 20 -10 25 -10 6 0 3 5 -5 10 -8 5 -19 10 -25 10
-5 0 -3 -5 5 -10z"/>
<path d="M11930 2680 c8 -5 20 -10 25 -10 6 0 3 5 -5 10 -8 5 -19 10 -25 10
-5 0 -3 -5 5 -10z"/>
<path d="M11980 2660 c8 -5 20 -10 25 -10 6 0 3 5 -5 10 -8 5 -19 10 -25 10
-5 0 -3 -5 5 -10z"/>
<path d="M12330 2505 c14 -8 30 -14 35 -14 6 0 -1 6 -15 14 -14 8 -29 14 -35
14 -5 0 1 -6 15 -14z"/>
<path d="M12390 2480 c8 -5 20 -10 25 -10 6 0 3 5 -5 10 -8 5 -19 10 -25 10
-5 0 -3 -5 5 -10z"/>
<path d="M12450 2455 c14 -8 30 -14 35 -14 6 0 -1 6 -15 14 -14 8 -29 14 -35
14 -5 0 1 -6 15 -14z"/>
<path d="M15883 2340 c0 -41 2 -58 4 -37 2 20 2 54 0 75 -2 20 -4 3 -4 -38z"/>
<path d="M12769 2315 c29 -14 55 -24 58 -22 2 3 -15 12 -39 22 -69 28 -78 27
-19 0z"/>
<path d="M12860 2275 c14 -8 30 -14 35 -14 6 0 -1 6 -15 14 -14 8 -29 14 -35
14 -5 0 1 -6 15 -14z"/>
<path d="M15600 2280 c8 -5 20 -10 25 -10 6 0 3 5 -5 10 -8 5 -19 10 -25 10
-5 0 -3 -5 5 -10z"/>
<path d="M15675 2251 c22 -10 51 -21 65 -25 14 -3 7 2 -15 13 -22 10 -51 21
-65 25 -14 3 -7 -2 15 -13z"/>
<path d="M12920 2250 c8 -5 20 -10 25 -10 6 0 3 5 -5 10 -8 5 -19 10 -25 10
-5 0 -3 -5 5 -10z"/>
<path d="M13220 2120 c8 -5 20 -10 25 -10 6 0 3 5 -5 10 -8 5 -19 10 -25 10
-5 0 -3 -5 5 -10z"/>
<path d="M13660 1930 c8 -5 20 -10 25 -10 6 0 3 5 -5 10 -8 5 -19 10 -25 10
-5 0 -3 -5 5 -10z"/>
<path d="M13780 1880 c8 -5 20 -10 25 -10 6 0 3 5 -5 10 -8 5 -19 10 -25 10
-5 0 -3 -5 5 -10z"/>
<path d="M14060 1755 c14 -8 30 -14 35 -14 6 0 -1 6 -15 14 -14 8 -29 14 -35
14 -5 0 1 -6 15 -14z"/>
<path d="M14130 1725 c14 -8 30 -14 35 -14 6 0 -1 6 -15 14 -14 8 -29 14 -35
14 -5 0 1 -6 15 -14z"/>
<path d="M14190 1700 c8 -5 20 -10 25 -10 6 0 3 5 -5 10 -8 5 -19 10 -25 10
-5 0 -3 -5 5 -10z"/>
<path d="M14250 1675 c14 -8 30 -14 35 -14 6 0 -1 6 -15 14 -14 8 -29 14 -35
14 -5 0 1 -6 15 -14z"/>
<path d="M14480 1570 c8 -5 20 -10 25 -10 6 0 3 5 -5 10 -8 5 -19 10 -25 10
-5 0 -3 -5 5 -10z"/>
<path d="M14530 1550 c8 -5 20 -10 25 -10 6 0 3 5 -5 10 -8 5 -19 10 -25 10
-5 0 -3 -5 5 -10z"/>
<path d="M14600 1520 c8 -5 20 -10 25 -10 6 0 3 5 -5 10 -8 5 -19 10 -25 10
-5 0 -3 -5 5 -10z"/>
<path d="M14650 1500 c8 -5 20 -10 25 -10 6 0 3 5 -5 10 -8 5 -19 10 -25 10
-5 0 -3 -5 5 -10z"/>
<path d="M14930 1380 c8 -5 20 -10 25 -10 6 0 3 5 -5 10 -8 5 -19 10 -25 10
-5 0 -3 -5 5 -10z"/>
<path d="M15380 1185 c14 -8 30 -14 35 -14 6 0 -1 6 -15 14 -14 8 -29 14 -35
14 -5 0 1 -6 15 -14z"/>
<path d="M15450 1155 c14 -8 30 -14 35 -14 6 0 -1 6 -15 14 -14 8 -29 14 -35
14 -5 0 1 -6 15 -14z"/>
<path d="M15510 1130 c8 -5 20 -10 25 -10 6 0 3 5 -5 10 -8 5 -19 10 -25 10
-5 0 -3 -5 5 -10z"/>
<path d="M15580 1100 c8 -5 20 -10 25 -10 6 0 3 5 -5 10 -8 5 -19 10 -25 10
-5 0 -3 -5 5 -10z"/>
<path d="M15790 1005 c14 -8 30 -14 35 -14 6 0 -1 6 -15 14 -14 8 -29 14 -35
14 -5 0 1 -6 15 -14z"/>
<path d="M15860 975 c14 -8 30 -14 35 -14 6 0 -1 6 -15 14 -14 8 -29 14 -35
14 -5 0 1 -6 15 -14z"/>
<path d="M15930 945 c14 -8 30 -14 35 -14 6 0 -1 6 -15 14 -14 8 -29 14 -35
14 -5 0 1 -6 15 -14z"/>
<path d="M15990 920 c8 -5 20 -10 25 -10 6 0 3 5 -5 10 -8 5 -19 10 -25 10 -5
0 -3 -5 5 -10z"/>
<path d="M16259 805 c29 -14 55 -24 58 -22 2 3 -15 12 -39 22 -69 28 -78 27
-19 0z"/>
<path d="M16695 660 c11 -5 27 -9 35 -9 9 0 8 4 -5 9 -11 5 -27 9 -35 9 -9 0
-8 -4 5 -9z"/>
<path d="M16788 633 c7 -3 16 -2 19 1 4 3 -2 6 -13 5 -11 0 -14 -3 -6 -6z"/>
<path d="M16858 613 c7 -3 16 -2 19 1 4 3 -2 6 -13 5 -11 0 -14 -3 -6 -6z"/>
<path d="M16928 593 c7 -3 16 -2 19 1 4 3 -2 6 -13 5 -11 0 -14 -3 -6 -6z"/>
<path d="M17001 571 c18 -12 277 -81 299 -80 8 0 -48 17 -125 38 -77 21 -151
41 -165 45 -19 5 -21 4 -9 -3z"/>
<path d="M17328 483 c7 -3 16 -2 19 1 4 3 -2 6 -13 5 -11 0 -14 -3 -6 -6z"/>
</g>
</svg>
